<mxfile host="app.diagrams.net" agent="Mozilla/5.0 (Macintosh; Intel Mac OS X 10.15; rv:143.0) Gecko/20100101 Firefox/143.0" version="28.2.7">
  <diagram id="r-dJ28WYsRRXpvUcKBlE" name="Page-1">
    <mxGraphModel dx="1892" dy="1188" grid="1" gridSize="10" guides="1" tooltips="1" connect="1" arrows="1" fold="1" page="1" pageScale="1" pageWidth="850" pageHeight="1100" math="0" shadow="0">
      <root>
        <mxCell id="0" />
        <mxCell id="1" parent="0" />
        <mxCell id="2" value="Start Game" style="whiteSpace=wrap;strokeWidth=2;" parent="1" vertex="1">
          <mxGeometry x="1000" y="8" width="141" height="54" as="geometry" />
        </mxCell>
        <mxCell id="3" value="Choose Action" style="rhombus;strokeWidth=2;whiteSpace=wrap;" parent="1" vertex="1">
          <mxGeometry x="839" y="112" width="155" height="155" as="geometry" />
        </mxCell>
        <mxCell id="4" value="Find Resources" style="whiteSpace=wrap;strokeWidth=2;" parent="1" vertex="1">
          <mxGeometry x="173" y="341" width="166" height="54" as="geometry" />
        </mxCell>
        <mxCell id="5" value="Trade with NPCs" style="whiteSpace=wrap;strokeWidth=2;" parent="1" vertex="1">
          <mxGeometry x="829" y="341" width="176" height="54" as="geometry" />
        </mxCell>
        <mxCell id="6" value="Manage Cow" style="whiteSpace=wrap;strokeWidth=2;" parent="1" vertex="1">
          <mxGeometry x="1359" y="341" width="149" height="54" as="geometry" />
        </mxCell>
        <mxCell id="7" value="Compete in Cow Fights" style="whiteSpace=wrap;strokeWidth=2;" parent="1" vertex="1">
          <mxGeometry x="1732" y="341" width="225" height="54" as="geometry" />
        </mxCell>
        <mxCell id="8" value="Gather Resources" style="rhombus;strokeWidth=2;whiteSpace=wrap;" parent="1" vertex="1">
          <mxGeometry x="167" y="459" width="179" height="179" as="geometry" />
        </mxCell>
        <mxCell id="9" value="Collect Grass" style="whiteSpace=wrap;strokeWidth=2;" parent="1" vertex="1">
          <mxGeometry x="8" y="781" width="154" height="54" as="geometry" />
        </mxCell>
        <mxCell id="10" value="Fill Water Bucket" style="whiteSpace=wrap;strokeWidth=2;" parent="1" vertex="1">
          <mxGeometry x="227" y="781" width="183" height="54" as="geometry" />
        </mxCell>
        <mxCell id="11" value="Feed the Cow" style="whiteSpace=wrap;strokeWidth=2;" parent="1" vertex="1">
          <mxGeometry x="460" y="781" width="158" height="54" as="geometry" />
        </mxCell>
        <mxCell id="12" value="Choose Item to Trade" style="rhombus;strokeWidth=2;whiteSpace=wrap;" parent="1" vertex="1">
          <mxGeometry x="813" y="445" width="207" height="207" as="geometry" />
        </mxCell>
        <mxCell id="13" value="Acquire Food" style="whiteSpace=wrap;strokeWidth=2;" parent="1" vertex="1">
          <mxGeometry x="668" y="781" width="154" height="54" as="geometry" />
        </mxCell>
        <mxCell id="14" value="Acquire Tools" style="whiteSpace=wrap;strokeWidth=2;" parent="1" vertex="1">
          <mxGeometry x="908" y="781" width="155" height="54" as="geometry" />
        </mxCell>
        <mxCell id="15" value="Purchase Upgrades" style="whiteSpace=wrap;strokeWidth=2;" parent="1" vertex="1">
          <mxGeometry x="1113" y="781" width="195" height="54" as="geometry" />
        </mxCell>
        <mxCell id="16" value="Monitor Health" style="whiteSpace=wrap;strokeWidth=2;" parent="1" vertex="1">
          <mxGeometry x="1350" y="521" width="167" height="54" as="geometry" />
        </mxCell>
        <mxCell id="17" value="Health Status" style="rhombus;strokeWidth=2;whiteSpace=wrap;" parent="1" vertex="1">
          <mxGeometry x="1359" y="733" width="150" height="150" as="geometry" />
        </mxCell>
        <mxCell id="18" value="Continue Raising Cow" style="whiteSpace=wrap;strokeWidth=2;" parent="1" vertex="1">
          <mxGeometry x="1386" y="965" width="214" height="54" as="geometry" />
        </mxCell>
        <mxCell id="19" value="Treat Cow" style="whiteSpace=wrap;strokeWidth=2;" parent="1" vertex="1">
          <mxGeometry x="1650" y="965" width="132" height="54" as="geometry" />
        </mxCell>
        <mxCell id="20" value="Allow Cow to Rest" style="whiteSpace=wrap;strokeWidth=2;" parent="1" vertex="1">
          <mxGeometry x="1868" y="1093" width="189" height="54" as="geometry" />
        </mxCell>
        <mxCell id="21" value="Engage in Battle" style="whiteSpace=wrap;strokeWidth=2;" parent="1" vertex="1">
          <mxGeometry x="1756" y="521" width="177" height="54" as="geometry" />
        </mxCell>
        <mxCell id="22" value="Battle Outcome" style="rhombus;strokeWidth=2;whiteSpace=wrap;" parent="1" vertex="1">
          <mxGeometry x="1761" y="725" width="167" height="167" as="geometry" />
        </mxCell>
        <mxCell id="23" value="Gain Experience" style="whiteSpace=wrap;strokeWidth=2;" parent="1" vertex="1">
          <mxGeometry x="1832" y="965" width="177" height="54" as="geometry" />
        </mxCell>
        <mxCell id="24" value="Recover" style="whiteSpace=wrap;strokeWidth=2;" parent="1" vertex="1">
          <mxGeometry x="2058" y="965" width="117" height="54" as="geometry" />
        </mxCell>
        <mxCell id="25" value="" style="curved=1;startArrow=none;endArrow=block;exitX=0;exitY=0.94;entryX=0.5;entryY=0;" parent="1" source="2" target="3" edge="1">
          <mxGeometry relative="1" as="geometry">
            <Array as="points">
              <mxPoint x="917" y="87" />
            </Array>
          </mxGeometry>
        </mxCell>
        <mxCell id="26" value="Explore" style="curved=1;startArrow=none;endArrow=block;exitX=0;exitY=0.59;entryX=0.5;entryY=-0.01;" parent="1" source="3" target="4" edge="1">
          <mxGeometry relative="1" as="geometry">
            <Array as="points">
              <mxPoint x="256" y="304" />
            </Array>
          </mxGeometry>
        </mxCell>
        <mxCell id="27" value="Interact" style="curved=1;startArrow=none;endArrow=block;exitX=0.5;exitY=1;entryX=0.5;entryY=-0.01;" parent="1" source="3" target="5" edge="1">
          <mxGeometry relative="1" as="geometry">
            <Array as="points" />
          </mxGeometry>
        </mxCell>
        <mxCell id="28" value="Raise" style="curved=1;startArrow=none;endArrow=block;exitX=1;exitY=0.61;entryX=0.5;entryY=-0.01;" parent="1" source="3" target="6" edge="1">
          <mxGeometry relative="1" as="geometry">
            <Array as="points">
              <mxPoint x="1434" y="304" />
            </Array>
          </mxGeometry>
        </mxCell>
        <mxCell id="29" value="Battle" style="curved=1;startArrow=none;endArrow=block;exitX=1;exitY=0.56;entryX=0.5;entryY=-0.01;" parent="1" source="3" target="7" edge="1">
          <mxGeometry relative="1" as="geometry">
            <Array as="points">
              <mxPoint x="1845" y="304" />
            </Array>
          </mxGeometry>
        </mxCell>
        <mxCell id="30" value="" style="curved=1;startArrow=none;endArrow=block;exitX=0.5;exitY=0.99;entryX=0.5;entryY=0;" parent="1" source="4" target="8" edge="1">
          <mxGeometry relative="1" as="geometry">
            <Array as="points" />
          </mxGeometry>
        </mxCell>
        <mxCell id="31" value="Grass" style="curved=1;startArrow=none;endArrow=block;exitX=0;exitY=0.86;entryX=0.47;entryY=0;" parent="1" source="8" target="9" edge="1">
          <mxGeometry relative="1" as="geometry">
            <Array as="points">
              <mxPoint x="64" y="688" />
            </Array>
          </mxGeometry>
        </mxCell>
        <mxCell id="32" value="Water" style="curved=1;startArrow=none;endArrow=block;exitX=0.5;exitY=1;entryX=0.42;entryY=0;" parent="1" source="8" target="10" edge="1">
          <mxGeometry relative="1" as="geometry">
            <Array as="points">
              <mxPoint x="256" y="688" />
            </Array>
          </mxGeometry>
        </mxCell>
        <mxCell id="33" value="Feed" style="curved=1;startArrow=none;endArrow=block;exitX=1;exitY=0.86;entryX=0.37;entryY=0;" parent="1" source="8" target="11" edge="1">
          <mxGeometry relative="1" as="geometry">
            <Array as="points">
              <mxPoint x="449" y="688" />
            </Array>
          </mxGeometry>
        </mxCell>
        <mxCell id="34" value="" style="curved=1;startArrow=none;endArrow=block;exitX=0.5;exitY=0.99;entryX=0.5;entryY=0;" parent="1" source="5" target="12" edge="1">
          <mxGeometry relative="1" as="geometry">
            <Array as="points" />
          </mxGeometry>
        </mxCell>
        <mxCell id="35" value="Food" style="curved=1;startArrow=none;endArrow=block;exitX=0;exitY=0.77;entryX=0.38;entryY=0;" parent="1" source="12" target="13" edge="1">
          <mxGeometry relative="1" as="geometry">
            <Array as="points">
              <mxPoint x="662" y="688" />
            </Array>
          </mxGeometry>
        </mxCell>
        <mxCell id="36" value="Tools" style="curved=1;startArrow=none;endArrow=block;exitX=0.5;exitY=1;entryX=0.4;entryY=0;" parent="1" source="12" target="14" edge="1">
          <mxGeometry relative="1" as="geometry">
            <Array as="points">
              <mxPoint x="917" y="688" />
            </Array>
          </mxGeometry>
        </mxCell>
        <mxCell id="37" value="Upgrades" style="curved=1;startArrow=none;endArrow=block;exitX=1;exitY=0.83;entryX=0.41;entryY=0;" parent="1" source="12" target="15" edge="1">
          <mxGeometry relative="1" as="geometry">
            <Array as="points">
              <mxPoint x="1127" y="688" />
            </Array>
          </mxGeometry>
        </mxCell>
        <mxCell id="38" value="" style="curved=1;startArrow=none;endArrow=block;exitX=0.5;exitY=0.99;entryX=0.5;entryY=0;" parent="1" source="6" target="16" edge="1">
          <mxGeometry relative="1" as="geometry">
            <Array as="points" />
          </mxGeometry>
        </mxCell>
        <mxCell id="39" value="" style="curved=1;startArrow=none;endArrow=block;exitX=0.5;exitY=1;entryX=0.5;entryY=0;" parent="1" source="16" target="17" edge="1">
          <mxGeometry relative="1" as="geometry">
            <Array as="points" />
          </mxGeometry>
        </mxCell>
        <mxCell id="40" value="Healthy" style="curved=1;startArrow=none;endArrow=block;exitX=0.5;exitY=1;entryX=0.38;entryY=0;" parent="1" source="17" target="18" edge="1">
          <mxGeometry relative="1" as="geometry">
            <Array as="points">
              <mxPoint x="1434" y="928" />
            </Array>
          </mxGeometry>
        </mxCell>
        <mxCell id="41" value="Sick" style="curved=1;startArrow=none;endArrow=block;exitX=1;exitY=0.71;entryX=0.5;entryY=0;" parent="1" source="17" target="19" edge="1">
          <mxGeometry relative="1" as="geometry">
            <Array as="points">
              <mxPoint x="1716" y="928" />
            </Array>
          </mxGeometry>
        </mxCell>
        <mxCell id="42" value="Rest" style="curved=1;startArrow=none;endArrow=block;exitX=0.5;exitY=1;entryX=0;entryY=0.04;" parent="1" source="19" target="20" edge="1">
          <mxGeometry relative="1" as="geometry">
            <Array as="points">
              <mxPoint x="1716" y="1056" />
            </Array>
          </mxGeometry>
        </mxCell>
        <mxCell id="43" value="" style="curved=1;startArrow=none;endArrow=block;exitX=0.5;exitY=0.99;entryX=0.5;entryY=0;" parent="1" source="7" target="21" edge="1">
          <mxGeometry relative="1" as="geometry">
            <Array as="points" />
          </mxGeometry>
        </mxCell>
        <mxCell id="44" value="" style="curved=1;startArrow=none;endArrow=block;exitX=0.5;exitY=1;entryX=0.5;entryY=0;" parent="1" source="21" target="22" edge="1">
          <mxGeometry relative="1" as="geometry">
            <Array as="points" />
          </mxGeometry>
        </mxCell>
        <mxCell id="45" value="Win" style="curved=1;startArrow=none;endArrow=block;exitX=0.5;exitY=1;entryX=0.32;entryY=0;" parent="1" source="22" target="23" edge="1">
          <mxGeometry relative="1" as="geometry">
            <Array as="points">
              <mxPoint x="1845" y="928" />
            </Array>
          </mxGeometry>
        </mxCell>
        <mxCell id="46" value="Loss" style="curved=1;startArrow=none;endArrow=block;exitX=1;exitY=0.81;entryX=0.21;entryY=0;" parent="1" source="22" target="24" edge="1">
          <mxGeometry relative="1" as="geometry">
            <Array as="points">
              <mxPoint x="2037" y="928" />
            </Array>
          </mxGeometry>
        </mxCell>
        <mxCell id="47" value="" style="curved=1;startArrow=none;endArrow=block;exitX=0.57;exitY=0;entryX=0;entryY=0.57;" parent="1" source="9" target="2" edge="1">
          <mxGeometry relative="1" as="geometry">
            <Array as="points">
              <mxPoint x="132" y="688" />
              <mxPoint x="132" y="87" />
            </Array>
          </mxGeometry>
        </mxCell>
        <mxCell id="48" value="" style="curved=1;startArrow=none;endArrow=block;exitX=0.61;exitY=0;entryX=0;entryY=0.6;" parent="1" source="10" target="2" edge="1">
          <mxGeometry relative="1" as="geometry">
            <Array as="points">
              <mxPoint x="409" y="688" />
              <mxPoint x="409" y="87" />
            </Array>
          </mxGeometry>
        </mxCell>
        <mxCell id="49" value="" style="curved=1;startArrow=none;endArrow=block;exitX=0.62;exitY=0;entryX=0;entryY=0.65;" parent="1" source="11" target="2" edge="1">
          <mxGeometry relative="1" as="geometry">
            <Array as="points">
              <mxPoint x="622" y="688" />
              <mxPoint x="622" y="87" />
            </Array>
          </mxGeometry>
        </mxCell>
        <mxCell id="50" value="" style="curved=1;startArrow=none;endArrow=block;exitX=0.55;exitY=0;entryX=0;entryY=0.73;" parent="1" source="13" target="2" edge="1">
          <mxGeometry relative="1" as="geometry">
            <Array as="points">
              <mxPoint x="778" y="688" />
              <mxPoint x="778" y="87" />
            </Array>
          </mxGeometry>
        </mxCell>
        <mxCell id="51" value="" style="curved=1;startArrow=none;endArrow=block;exitX=0.63;exitY=0;entryX=0.5;entryY=1;" parent="1" source="14" target="2" edge="1">
          <mxGeometry relative="1" as="geometry">
            <Array as="points">
              <mxPoint x="1070" y="688" />
            </Array>
          </mxGeometry>
        </mxCell>
        <mxCell id="52" value="" style="curved=1;startArrow=none;endArrow=block;exitX=0.56;exitY=0;entryX=1;entryY=0.85;" parent="1" source="15" target="2" edge="1">
          <mxGeometry relative="1" as="geometry">
            <Array as="points">
              <mxPoint x="1263" y="688" />
              <mxPoint x="1263" y="87" />
            </Array>
          </mxGeometry>
        </mxCell>
        <mxCell id="53" value="" style="curved=1;startArrow=none;endArrow=block;exitX=0.68;exitY=0;entryX=1;entryY=0.63;" parent="1" source="18" target="2" edge="1">
          <mxGeometry relative="1" as="geometry">
            <Array as="points">
              <mxPoint x="1586" y="928" />
              <mxPoint x="1586" y="87" />
            </Array>
          </mxGeometry>
        </mxCell>
        <mxCell id="54" value="" style="curved=1;startArrow=none;endArrow=block;exitX=1;exitY=0.04;entryX=1;entryY=0.56;" parent="1" source="20" target="2" edge="1">
          <mxGeometry relative="1" as="geometry">
            <Array as="points">
              <mxPoint x="2210" y="1056" />
              <mxPoint x="2210" y="87" />
            </Array>
          </mxGeometry>
        </mxCell>
        <mxCell id="55" value="" style="curved=1;startArrow=none;endArrow=block;exitX=0.69;exitY=0;entryX=1;entryY=0.57;" parent="1" source="23" target="2" edge="1">
          <mxGeometry relative="1" as="geometry">
            <Array as="points">
              <mxPoint x="1999" y="928" />
              <mxPoint x="1999" y="87" />
            </Array>
          </mxGeometry>
        </mxCell>
        <mxCell id="56" value="" style="curved=1;startArrow=none;endArrow=block;exitX=0.63;exitY=0;entryX=1;entryY=0.56;" parent="1" source="24" target="2" edge="1">
          <mxGeometry relative="1" as="geometry">
            <Array as="points">
              <mxPoint x="2153" y="928" />
              <mxPoint x="2153" y="87" />
            </Array>
          </mxGeometry>
        </mxCell>
      </root>
    </mxGraphModel>
  </diagram>
</mxfile>
